<?xml version="1.0" encoding="UTF-8" standalone="no"?>
<!DOCTYPE svg PUBLIC "-//W3C//DTD SVG 1.1//EN"
 "http://www.w3.org/Graphics/SVG/1.1/DTD/svg11.dtd">
<!-- Generated by graphviz version 2.43.0 (0)
 -->
<!-- Title: g Pages: 1 -->
<svg width="382pt" height="188pt"
 viewBox="0.00 0.00 381.73 188.00" xmlns="http://www.w3.org/2000/svg" xmlns:xlink="http://www.w3.org/1999/xlink">
<g id="graph0" class="graph" transform="scale(1 1) rotate(0) translate(4 184)">
<title>g</title>
<polygon fill="white" stroke="transparent" points="-4,4 -4,-184 377.73,-184 377.73,4 -4,4"/>
<!-- Public Cloud load balancer with public IP address -->
<g id="node1" class="node">
<title>Public Cloud load balancer with public IP address</title>
<ellipse fill="none" stroke="black" cx="186.86" cy="-162" rx="186.73" ry="18"/>
<text text-anchor="middle" x="186.86" y="-157.8" font-family="Times,serif" font-size="14.00">Public Cloud load balancer with public IP address</text>
</g>
<!-- Kubernetes LoadBalancer service -->
<g id="node2" class="node">
<title>Kubernetes LoadBalancer service</title>
<ellipse fill="none" stroke="black" cx="186.86" cy="-90" rx="129.37" ry="18"/>
<text text-anchor="middle" x="186.86" y="-85.8" font-family="Times,serif" font-size="14.00">Kubernetes LoadBalancer service</text>
</g>
<!-- Public Cloud load balancer with public IP address&#45;&gt;Kubernetes LoadBalancer service -->
<g id="edge1" class="edge">
<title>Public Cloud load balancer with public IP address&#45;&gt;Kubernetes LoadBalancer service</title>
<path fill="none" stroke="black" d="M186.86,-143.7C186.86,-135.98 186.86,-126.71 186.86,-118.11"/>
<polygon fill="black" stroke="black" points="190.36,-118.1 186.86,-108.1 183.36,-118.1 190.36,-118.1"/>
</g>
<!-- Pod A -->
<g id="node3" class="node">
<title>Pod A</title>
<ellipse fill="none" stroke="black" cx="145.86" cy="-18" rx="31.96" ry="18"/>
<text text-anchor="middle" x="145.86" y="-13.8" font-family="Times,serif" font-size="14.00">Pod A</text>
</g>
<!-- Kubernetes LoadBalancer service&#45;&gt;Pod A -->
<g id="edge2" class="edge">
<title>Kubernetes LoadBalancer service&#45;&gt;Pod A</title>
<path fill="none" stroke="black" d="M176.73,-71.7C171.89,-63.44 166.01,-53.39 160.68,-44.3"/>
<polygon fill="black" stroke="black" points="163.67,-42.48 155.6,-35.62 157.63,-46.02 163.67,-42.48"/>
</g>
<!-- Pod B -->
<g id="node4" class="node">
<title>Pod B</title>
<ellipse fill="none" stroke="black" cx="227.86" cy="-18" rx="31.96" ry="18"/>
<text text-anchor="middle" x="227.86" y="-13.8" font-family="Times,serif" font-size="14.00">Pod B</text>
</g>
<!-- Kubernetes LoadBalancer service&#45;&gt;Pod B -->
<g id="edge3" class="edge">
<title>Kubernetes LoadBalancer service&#45;&gt;Pod B</title>
<path fill="none" stroke="black" d="M197,-71.7C201.84,-63.44 207.72,-53.39 213.05,-44.3"/>
<polygon fill="black" stroke="black" points="216.09,-46.02 218.13,-35.62 210.05,-42.48 216.09,-46.02"/>
</g>
</g>
</svg>
